<?xml version="1.0" encoding="utf-8"?>
<!-- Generator: Adobe Illustrator 25.3.0, SVG Export Plug-In . SVG Version: 6.00 Build 0)  -->
<svg version="1.1" id="Layer_1" xmlns="http://www.w3.org/2000/svg" xmlns:xlink="http://www.w3.org/1999/xlink" x="0px" y="0px"
	 viewBox="0 0 451.5 455" style="enable-background:new 0 0 451.5 455;" xml:space="preserve">
<path d="M436.1,213.8c-8.5,0-15.4,6.9-15.4,15.4c0,107.5-87.4,194.9-194.9,194.9S30.9,336.7,30.9,229.3S118.3,34.4,225.7,34.4
	c60.4,0,117.3,28.4,153.9,75.4l-82.3,0.1c-8.5,0-15.4,6.9-15.4,15.4c0,8.5,6.9,15.4,15.4,15.4h0l126.5-0.1l0-125.2
	C424,6.9,417.1,0,408.5,0c-8.5,0-15.4,6.9-15.4,15.4l0,63.1c-42.4-46.8-103-75-167.3-75C101.3,3.5,0,104.8,0,229.3
	S101.3,455,225.7,455s225.7-101.3,225.7-225.7C451.5,220.7,444.6,213.8,436.1,213.8z"/>
</svg>
